<?xml version="1.0" encoding="UTF-8"?><svg id="Layer_2" xmlns="http://www.w3.org/2000/svg" viewBox="0 0 352.56 120.74"><defs><style>.cls-1{fill:#f5c142;}.cls-2{fill:#f5f6f7;}.cls-3{fill:#ed1b2e;}.cls-4{fill:#e8e3e4;fill-rule:evenodd;}.cls-5{fill:#00262b;}</style></defs><g id="Layer_1-2"><path class="cls-2" d="M132.5,84.71c-.89,0-1.86,0-2.75-.08-6.86-.4-10.17-2.26-13.73-7.43-2.75-3.88-5.49-8.8-7.83-12.76-1.45-2.34-2.75-3.31-6.7-3.31h-2.34v12.68c0,6.86.73,7.43,7.11,7.91v2.34h-21.72v-2.34c6.46-.48,7.19-1.05,7.19-7.91v-32.22c0-6.78-.65-7.19-6.86-7.67v-2.34h20.43c6.14,0,10.09.73,13.16,2.75,3.23,2.1,5.41,5.73,5.41,10.58,0,7.03-4.36,11.22-10.26,13.81,1.37,2.5,4.68,7.91,7.11,11.55,2.91,4.36,4.52,6.46,6.46,8.56,2.1,2.26,3.88,3.15,5.65,3.71l-.32,2.18ZM102.7,58.47c3.96,0,6.62-.65,8.64-2.26,2.99-2.42,4.28-5.65,4.28-10.01,0-8.72-5.57-11.95-11.39-11.95-2.26,0-3.63.32-4.28.81-.57.48-.81,1.37-.81,3.47v19.95h3.55Z"/><path class="cls-2" d="M179.02,43.85c-.73-3.15-1.29-4.93-2.42-6.54-1.37-2.18-3.23-2.83-9.04-2.83h-5.73c-2.5,0-2.75.24-2.75,2.58v18.98h7.99c7.27,0,7.75-.73,8.72-5.9h2.42v15.58h-2.42c-.97-5.49-1.45-6.38-8.72-6.38h-7.99v14.29c0,7.11.65,7.51,7.91,8.08v2.34h-22.53v-2.34c6.38-.48,7.03-.97,7.03-8.08v-31.73c0-7.02-.65-7.51-6.78-7.99v-2.34h35.93c.08,2.58.48,7.91.81,11.95l-2.42.32Z"/><path class="cls-2" d="M241.95,84.71c-.89,0-1.86,0-2.75-.08-6.86-.4-10.17-2.26-13.73-7.43-2.75-3.88-5.49-8.8-7.83-12.76-1.45-2.34-2.75-3.31-6.7-3.31h-2.34v12.68c0,6.86.73,7.43,7.11,7.91v2.34h-21.72v-2.34c6.46-.48,7.19-1.05,7.19-7.91v-32.22c0-6.78-.65-7.19-6.86-7.67v-2.34h20.43c6.14,0,10.09.73,13.16,2.75,3.23,2.1,5.41,5.73,5.41,10.58,0,7.03-4.36,11.22-10.25,13.81,1.37,2.5,4.68,7.91,7.11,11.55,2.91,4.36,4.52,6.46,6.46,8.56,2.1,2.26,3.88,3.15,5.65,3.71l-.32,2.18ZM212.15,58.47c3.96,0,6.62-.65,8.64-2.26,2.99-2.42,4.28-5.65,4.28-10.01,0-8.72-5.57-11.95-11.39-11.95-2.26,0-3.63.32-4.28.81-.56.48-.81,1.37-.81,3.47v19.95h3.55Z"/><path class="cls-2" d="M309.08,33.92c-4.52.24-6.38,1.29-6.78,4.85-.24,2.5-.48,6.14-.48,13.57v32.54h-2.75l-34.24-41.99h-.16v19.86c0,7.35.24,11.22.48,13.57.4,4.04,2.18,5.09,7.83,5.41v2.34h-19.3v-2.34c4.6-.32,6.62-1.37,7.03-5.25.24-2.5.57-6.38.57-13.73v-17.6c0-5.73-.16-6.38-1.62-8.24-1.62-2.02-3.39-2.66-7.11-2.99v-2.34h12.44l33.19,39.57h.24v-18.81c0-7.43-.32-11.06-.57-13.4-.4-3.63-2.26-4.68-7.91-5.01v-2.34h19.14v2.34Z"/><path class="cls-2" d="M347.71,43.93c-1.37-5.09-3.71-10.74-10.66-10.74-5.89,0-8.72,4.28-8.72,8.72,0,5.65,3.71,8.4,10.17,11.71,6.7,3.39,14.05,7.27,14.05,16.15s-7.35,15.5-18.25,15.5c-3.23,0-5.89-.56-7.91-1.21-2.1-.65-3.31-1.29-4.2-1.7-.65-1.78-1.7-8.64-2.18-12.76l2.42-.65c1.37,5.01,5.17,13.32,13.4,13.32,5.89,0,9.37-3.71,9.37-9.45s-4.28-8.64-10.26-11.87c-5.81-3.07-13.48-7.11-13.48-15.99,0-7.99,6.38-14.62,16.96-14.62,3.96,0,7.59,1.05,10.34,1.86.32,2.91.81,6.14,1.45,11.31l-2.5.4Z"/><path class="cls-5" d="M.96,48.61v38.82l2.68,13.43,5.84,8.11,9.79,6.24,15.08,4.61,12.47-3.43,11.55-6.51,6.07-7.06,3.15-10.42.85-12.11v-31.99l-67.48.3h0Z"/><path class="cls-5" d="M3.56,17.47l-1.09,2.04.71,2.45,1.59,1.15,1.77.32,1.92-.94,3.75.56,3.95-2.04.94-4.1,2.92.24,3.78-2.33,4.37-.12,3.52-2.52,3.78,1.92,3.36-.18,2.66-1.39,1.08,2.8,3.15,1.62,3.63.06.8,2.45,2.89,1.98,2.92.77,3.1-.86,3.18,1.02,2.63-.24,1.95-1.48.68-2.54-.74-2.15-2.66-1.36-1.09-.18-.94-2.27-1.95-1.41-4.04-.09-1.42.32-1.3-2.77-2.44-.97-3.72.59-3.9-4.44-5.56-.77-3.06,1.06-5.27-1.54-4,1.77-1.95,3.39-5.34-.93-3.72,2.12-1,3.04-3.22,1.09-1.75,2.85-4.13,1.24-.75.75ZM43.98,36.3l2.2-.84,3.56-.52,3.91.62,2.2,2.75,1.55,2.88-1.16,1.16-2.91-.16-1.65-.32-2.23.19-3.01-.36-.45-1.81-2.01-3.59h0ZM21.48,36.15l3.36-.91,4.69-.13,3.27,1.59,1.97,3.23.52,1.62-2.65.97-3.07-1.04-2.23.84-3.11-.84-1.65-3.75-1.1-1.58ZM4.9,34.76l-2.75,1.16-1.03,1.91.16,2.23,1.36,1.71,2.46.74,2.52-1.33,2.2,1.1,3.14-.39.52-.94-2.43-3.82-1.84-1.71s-4.3-.68-4.3-.68Z"/><path class="cls-3" d="M56.01,35.71l-.86.59,2.66,5.22,3.95.86,4.69-.71,1.3-1.27.09-1.74-.8-1.12-1.89-1.56-3.54-.86-3.39-.06-2.21.65h0ZM10.67,36.02l1.03,2.49,2.16,3,3.71.8,4.69-.19,2.02-.94-1.27-2.63-2.35-2.77-4.74-.89-3.1.19s-2.16.94-2.16.94ZM32.99,36.42l1.02,2.32,2.14,2.81,3.68.75,4.65-.18,2-.88-1.26-2.46-2.33-2.59-4.7-.83-3.07.18-2.14.88h0Z"/><path class="cls-1" d="M2.24,28l2.53-.56,5.07-.28,4.92.56,4.92-.1,3.99.56-1.75-1.38-3.66-2.2-2.77-2.99,1.2-2.26,2.01,1.01,4,1.85,4.05,2.38.62-.98-2.21-3.63-1.73-4.36,1.12-.39,2.01.34,3.52,4.75,1.13,1.8,1.03-.2.44-8.81,2.85.98,1.01,4.95-.2,3.02,1.57-.92,2.46-5.12,1.57-1.03,2.38,1.96-.92,2.1-1.98,4.78,1.32.04,7.16-4.61,2.25,2.11-2.94,1.9-3.69,4.33,3.72-.64,8.08.25,7.73-.62,4.14.73-9.14,2.99-11.06,1.33-2.65.77-.07,3.01-2.93,1.2-2.43-1.06-3.33-.39-4.28,1.06-.88.2-3.69-1.31-2.01.08-3.67.66-.22-3.38-5.77-1.38-4.8-.53-5.78-1.17-4.24-1.37Z"/><path class="cls-4" d="M70.18,26.8c-.37-.28-4.68-.83-5.32-.83s-4.31,0-5.78.28c-2.2.37-6.06.37-8.9,0-1.01-.09-2.2.09-3.12.46.18-.18.37-.37.64-.55.83-.92,1.83-2.57,3.49-3.4.46-.18.83-.46,1.19-.64,1.37.74,3.67,1.19,6.42-.09,4.12,2.11,6.6.65,7.52-.09,1.1-.92,1.65-2.2,1.65-3.58,0-.46-.09-.92-.18-1.37-.64-1.83-2.2-2.94-4.49-3.21-.09-.46-.37-.92-.55-1.38.28-.37.55-.65.65-.83.18-.28.92-1.37-.92-.46-.09.09-.28.18-.46.28-.28-.28-.55-.46-.83-.64-1.74-1.01-4.03-1.19-6.33-.55-.37-1.28-.92-2.29-1.92-2.94-1.01-.64-2.39-.83-3.94-.55.09-.18.18-.46.28-.55.65-1.46.28-1.83-.37-1.19-.83.74-1.28,1.28-1.74,1.65-1.46-2.39-3.4-3.94-5.69-4.49-2.02-.55-4.12-.28-6.06.65-.09-1.01-.28-1.74-.37-2.2-.37-1.19-.83-.28-.83.09-.09.46-.18,1.2-.28,1.92-1.92-1.01-4.03-1.29-6.06-.74-2.2.64-3.85,2.29-4.86,4.58-.83-.28-1.56-.46-2.2-.55-.37-.55-1.01-1.2-1.83-1.92-.55-.46-1.01-.28-.74.74.09.37.28.74.37,1.01-1.56.09-2.75.64-3.49,1.19-1.56,1.2-2.11,2.84-2.29,3.94-.09,0-.18.09-.18.09-1.28.28-3.03.74-4.04,2.48-.18-.09-.37-.18-.37-.28-3.21-2.11-1.74.65-.46,1.83-4.31.64-5.51,2.66-5.78,3.85-.12.26-.12.62-.12.89,0,1.38.74,2.75,1.92,3.58,1.47,1.01,3.12.92,4.68-.09,2.02.65,4.86.55,6.88-.92,1.19,1.29,2.11,2.2,2.66,2.66,1.28,1.29,3.21,2.2,4.13,2.57-.92-.37-2.57-.74-4.13-.55-3.4.46-5.69-.18-7.15-.28-2.39-.28-4.86.18-6.15.18s-3.12.65-4.03.74c-1.01.18-.92.83.46,1.2,1.38.37,3.85.55,4.49.92,2.2.92,5.88,1.74,8.44,1.56,1.83-.18,3.67.74,4.13.92.92.28,3.12.92,4.03.92,0-.09,0,1.29.09,1.92-.37.09-.64.28-1.01.37-1.01-.64-5.51-2.48-11.01-.18-1.2-.37-3.58-1.74-6.97-.65-4.13,1.37-3.49,5.14-2.11,6.88,1.83,2.38,5.23,1.83,6.24.74,2.2,1.46,4.49,1.01,6.15,0,1.1.65,6.42,1.65,10.46,0,.55.37,2.75,1.56,5.6.09,1.65,1.01,4.4,1.01,5.78-.18.46.46,2.02,1.01,5.23,1.01,3.85,0,4.77-.65,5.32-1.1.83.37,3.03,1.56,5.69.37,1.46.92,4.4.83,5.97-.18,2.85,1.28,8.08.74,9.35-.18,2.39-1.65,1.19-4.95-1.37-6.51-5.05-2.57-9.82-.55-11.01.09-1.47-1.01-4.59-1.65-7.89-1.01.09-.37,0-.83,0-1.29v-.18c.65-.18,1.56-.92,3.4-1.01,2.57-.18,8.53-.09,11.46-1.65,1.74-.92,7.62-2.02,8.44-2.48.74-.56.56-.92.1-1.2h0ZM48.44,23.31c-2.11,2.57-3.21,3.4-3.58,3.4-.46-.83-1.28-1.83-1.92-2.39.74-.83,4.13-2.39,5.69-3.58.28-.18.92-.55,1.19-.74.37.46.92.92,1.47,1.28-1.38.83-2.11,1.29-2.85,2.02ZM17.43,17.81c1.83.28,3.94-.18,5.41-1.56,1.92,3.03,1.92,5.69,3.76,7.62-2.29-2.2-4.31-2.2-7.62-3.94-.55-.28-1.38-.83-1.65-1.01,0-.28.09-.55.09-.92,0,0,0-.1,0-.19ZM31.37,21.2c.09.09-.92-1.37-1.01-1.56-.37-.55-.83-1.01-1.28-1.65-.83-.92-1.47-1.74-2.02-2.29,1.28-.28,2.85-1.1,4.4-2.57.18.09.37.18.55.37-.09.55-.18,1.01-.28,1.28-.37,2.02-.37,3.58-.46,4.22,0,.65.1,1.65.1,2.2ZM28.53,19.37c.83,1.01,1.47,2.29,1.65,2.57-.65.28-1.83.83-2.57,1.28-1.28-1.28-2.29-5.32-2.94-6.33-.28-.37-.46-.64-.55-.92.46.18,1.1.09,1.56.18.18.1,1.28,1.1,2.84,3.22ZM34.4,22.31c6.24,0,11.19,4.95,11.19,11.19,0,.46,0,1.01-.09,1.65-.64.18-1.37.46-2.02.74-3.21-1.92-7.62-1.74-10.74,0-1.92-1.46-6.15-1.65-9.36-.92-.09-.64-.18-1.19-.18-1.46.09-6.25,5.05-11.2,11.2-11.2ZM32.84,17.99c.09-2.11.55-3.49.55-3.76.46.18,1.01.37,1.46.55.37.83,1.1,4.31.83,6.42-.92-.09-2.02-.09-2.75,0-.18-.36-.18-2.11-.09-3.21ZM42.75,18.27c-.65,1.37-.28,3.12-1.92,4.68-.18-.18-1.83-.92-2.48-1.19.28-2.2,2.29-4.86,3.58-5.97.37.46,1.01.92,1.47,1.19-.09.18-.36.64-.64,1.29ZM44.49,17.81c.09-.09.09-.18.18-.37,1.19.37,2.57.46,3.85.37.09.46.37.92.55,1.37-.65.28-2.57,1.65-5.41,3.21-.74.37-1.19.83-1.46,1.1.28-.46.74-1.01.92-1.56.46-1.38.37-2.38,1.37-4.12ZM37.61,19.46c-.28.74-.46,1.19-.55,1.65.28-1.65-.18-4.13-.74-6.24,1.47,0,2.94-.37,4.4-1.19.09.37.28.64.46.92-.82.74-2.84,2.85-3.58,4.86ZM14.68,21.2c-1.65,1.37-4.4,1.46-6.15.83-.18-.09-.46-.09-.64.09-1.1.83-2.39.92-3.4.18-1.01-.74-1.56-1.92-1.29-3.12.37-1.56,2.29-2.66,5.23-2.94.28,0,.55-.28.64-.55.55-2.66,2.29-3.03,3.94-3.4l.74-.18c.37-.09.55-.37.46-.74-.09-.46.37-2.2,1.74-3.31,1.65-1.29,4.13-1.29,7.15-.09.17.09.38.09.55,0,.18-.09.28-.18.37-.37.74-2.2,2.29-3.76,4.22-4.31,2.02-.65,4.22-.18,6.15,1.19.28.18.55.18.83,0,1.83-1.19,4.03-1.56,5.97-1.01,2.2.55,4.04,2.2,5.41,4.77.18.28.55.46.83.37,2.11-.74,3.76-.74,4.86-.09,1.1.65,1.38,1.74,1.56,2.66,0,.18.18.37.28.46.18.09.37.09.55.09,2.2-.74,4.4-.64,5.87.28,1.01.64,1.56,1.47,1.74,2.57.09.28.28.55.64.55,1.92.09,3.31,1.01,3.76,2.29.37,1.19,0,2.66-1.01,3.49-1.46,1.19-3.76,1.1-6.24-.18-.2-.09-.44-.09-.64,0-2.02,1.01-3.85,1.1-5.6.18-2.02-1.01-3.21-3.12-3.31-4.13,0-.19-.1-.37-.28-.46-.18-.09-.37-.18-.55-.09-1.37.18-6.06.64-7.06-3.85-.09-.18-.18-.37-.37-.46-.18-.09-.46.09-.65.18-3.03,2.02-6.06,1.83-8.9-.46-.28-.18-.64-.28-.92,0-3.31,3.31-5.97,3.12-7.25,2.57-.28-.09-.65,0-.83.28-1.29,2.02-4.04,2.38-5.88,1.83-.18-.09-.46-.09-.65.09-.18.18-.28.37-.28.65,0,1.66-.46,3.13-1.65,4.13h0ZM16.24,21.76c.28-.37.65-1.11.83-1.65.18.09.28.18.37.28.09,0,1.1.74,1.74,1.1,2.85,1.37,4.59,1.65,6.51,3.21-.74.74-1.46,1.65-1.83,2.48-4.04-1.19-7.16-4.77-7.62-5.41ZM18.35,30.84c-.37-.18-2.75-1.01-4.13-.92-2.85.18-6.42-.64-8.17-1.37-.46-.18-4.31-.55-.55-.55,1.28,0,2.75-.37,5.32,0,1.46.18,4.03.46,7.89.18,1.92-.18,3.31.46,4.03,1.19-.18.55-.46,1.92-.46,2.39-1.09,0-2.93-.56-3.94-.92ZM8.81,41.11c-1.74-1.2-2.85-3.49-4.03-3.12-.46.18-.55,1.1.09,1.1.46,0,1.28,1.28,1.83,1.83-.09.65-1.83,1.38-3.67.28-1.4-.87-1.85-2.71-1.01-4.13.64-1.1,2.29-1.65,4.4-1.56,3.94.09,5.14,4.58,6.06,5.51,0,.37-2.21,1.2-3.67.09ZM14.58,41.02c-1.46-.65-2.66-4.13-3.12-4.59-.18-.18,2.66-1.19,5.51-.92,4.95.46,4.95,3.49,6.15,4.95.46.65-4.03,1.84-8.53.56ZM30.64,41.39c-.46-.28-1.83-2.02-2.39-2.66-.46-.64-1.37-1.19-1.83-.64-.28.37,0,.74.46.92.46.28,1.65,1.74,1.74,2.11-.09.46-2.29,1.29-3.58-.28-.64-.83-1.92-3.21-2.75-4.22,2.85-1.01,6.15-1.37,8.54-.28,2.29,1.1,2.66,3.49,3.58,4.68.18.83-2.39,1.29-3.76.37ZM36.78,41.3c-1.46-.64-2.66-4.13-3.12-4.59-.18-.18,2.66-1.19,5.51-.92,4.95.46,4.95,3.49,6.15,4.95.46.56-3.94,1.84-8.53.56ZM61.37,35.61c4.95.46,6.06,3.67,5.6,4.68-.46.92-3.4,2.11-7.98.83-1.46-.65-2.66-4.13-3.12-4.59-.28-.19,2.56-1.19,5.5-.92ZM53.03,36.34c2.29,1.1,2.75,3.49,3.58,4.68.18.83-2.57,1.01-3.76.37-.46-.28-1.83-2.02-2.38-2.66-.46-.64-1.29-1.01-1.65-.46-.28.37.09.74.46.92.55.28,1.46,1.65,1.56,1.92-.09.46-2.02,1.1-3.49-.37-.74-.74-2.02-3.31-2.57-4.31,2.84-.92,5.87-1.19,8.26-.09ZM66.24,27.81c-1.46.28-3.21.74-5.32,1.47-2.85,1.1-8.35,1.37-10.65,1.37s-2.84.92-3.67.83c0-1.2-.74-2.85-.74-2.85.64-.37,2.66-1.01,4.49-.92,2.38.09,6.69.28,8.99-.09,1.1-.18,5.14-.18,5.69-.18.46,0,1.19.09,1.37.09,1.01.09.28.18-.18.28ZM8.63,18.27c-1.19,0-2.2,0-3.03.92-.92,1.01-.64,1.46-.83,1.65-.28.28-.83-.18-.83-.65.09-2.29,2.85-3.21,4.49-3.03.65.09.74,1.1.19,1.1ZM13.58,14.42c-1.74.18-2.29,1.01-2.57,2.02-.09.37-1.11.09-.92-.64.46-2.2,2.85-2.66,3.67-2.48.19.08.1,1.1-.18,1.1ZM21.19,9.74c-3.12-1.19-4.68,1.1-5.14,3.03-.09.28-1.1.18-.92-.64.37-1.92,2.2-4.68,6.51-3.58.36.09.09,1.37-.46,1.19ZM32.75,6.62c-2.85-1.92-5.14-.37-6.33,1.01-.55.65-1.19-.46-.92-.83,1.01-1.65,4.58-4.13,7.71-1.37.37.37,0,1.46-.46,1.2ZM44.58,9.28c-.28.18-.37-.18-.55-.46-2.57-4.03-7.15-2.94-8.44-1.1-.28.37-.92-.64-.55-1.19,1.1-1.83,6.97-3.49,10,1.65.28.56-.18.92-.46,1.1ZM51.74,11.85c-.74-1.92-2.11-1.83-3.67-1.28-.74.28-.55-1.01-.28-1.1,1.56-.55,4.22-.83,4.95,1.83.09.73-.83,1.1-1.01.55ZM60.18,15.88c-1.28-2.39-3.4-2.39-5.14-1.74-.37.18-.74-.83-.09-1.19,1.65-.92,5.14-.83,6.15,2.29.19.56-.55,1.47-.92.65ZM65.51,19.65c-.09.37-1.1.46-1.01,0,.18-1.92-.83-2.11-2.11-2.11-.46,0-.46-1.01-.09-1.1,1.74-.36,3.76.92,3.21,3.22h0ZM0,47.72v36.15c0,11.93,2.94,20.18,9.35,25.97,6.33,5.78,15.78,8.72,25.05,10.92,9.54-2.29,18.71-5.05,25.05-10.92,6.42-5.78,9.35-14.03,9.35-25.97v-36.15H0ZM5.34,53.53v30.39c0,10.03,2.47,16.96,7.86,21.83,5.32,4.86,13.26,7.33,21.06,9.18,8.02-1.93,15.73-4.24,21.06-9.18,5.4-4.86,7.86-11.8,7.86-21.83v-30.39H5.34ZM13.73,75.29c0,.29.1.53.3.73.2.2.45.3.75.3.66.03,1.32.08,1.97.15.65.07,1.41.19,2.26.38s1.53.41,2.02.66c.03.25.14.46.33.63.19.17.41.25.66.25s.48-.08.66-.25c.19-.17.3-.38.35-.63.5-.25,1.17-.48,2.01-.66.84-.19,1.59-.32,2.26-.38.66-.07,1.33-.12,1.99-.15.28,0,.52-.1.73-.3.21-.2.31-.44.3-.73v-12.45c0-.29-.1-.53-.3-.73-.2-.2-.44-.3-.73-.32-.01,0-.03,0-.05.02-.02.01-.04.01-.07,0-3.29.09-5.48.53-6.57,1.31-.35.27-.55.51-.58.75l-.05-.17c-.2-.44-.75-.82-1.64-1.13-1.26-.44-3.08-.7-5.46-.76h-.07s-.03,0-.03-.02c-.29,0-.54.11-.75.32-.21.21-.31.45-.3.73v12.45h0ZM15.8,74.31v-10.34c2.38.18,4.11.54,5.19,1.08v10.24c-1.07-.53-2.8-.86-5.19-.98h0ZM16.85,72.17s.09,0,.17.02c.08.01.22.02.43.02s.42.02.63.05c.21.03.43.07.65.12.22.04.43.11.61.18.19.08.33.17.43.28.1.11.16.24.18.38v-2.07s0-.07-.02-.12c-.01-.04-.07-.13-.18-.25-.11-.12-.27-.23-.46-.32-.2-.09-.51-.17-.93-.25-.42-.08-.92-.12-1.51-.12v2.07h0ZM16.85,68.02s.09,0,.17.02c.08.01.22.02.43.02s.42.02.63.05c.21.03.43.07.65.12s.43.11.61.18c.19.08.33.17.43.28.1.11.16.24.18.38v-2.07s0-.07-.02-.12c-.01-.04-.07-.13-.18-.25-.11-.12-.27-.23-.46-.32-.2-.09-.51-.17-.93-.25-.42-.08-.92-.12-1.51-.12v2.07h0ZM23.07,75.29v-10.24c1.07-.54,2.8-.9,5.18-1.08v10.34c-2.39.12-4.12.45-5.18.98h0ZM24.1,73.22c0-.2.11-.37.32-.51.21-.14.47-.24.78-.3s.61-.11.91-.15.56-.07.78-.07l.33-.02v-2.07c-.59,0-1.1.04-1.53.12s-.74.16-.93.25-.34.19-.45.32c-.11.12-.18.21-.2.27l-.02.1v2.07h0ZM24.1,69.07c0-.2.11-.37.32-.51.21-.14.47-.24.78-.3s.61-.11.91-.15.56-.07.78-.07l.33-.02v-2.07c-.59,0-1.1.04-1.53.12-.43.08-.74.16-.93.25-.19.09-.34.19-.45.32-.11.12-.18.21-.2.27l-.02.1v2.07h0ZM39.08,75.29c0,.29.1.53.3.73.2.2.45.3.75.3.66.03,1.32.08,1.97.15.65.07,1.41.19,2.26.38s1.53.41,2.02.66c.03.25.14.46.33.63.19.17.41.25.66.25s.48-.08.66-.25c.19-.17.3-.38.35-.63.5-.25,1.17-.48,2.01-.66.84-.19,1.59-.32,2.26-.38.66-.07,1.33-.12,1.99-.15.28,0,.52-.1.73-.3.21-.2.31-.44.3-.73v-12.45c0-.29-.1-.53-.3-.73-.2-.2-.44-.3-.73-.32-.01,0-.03,0-.05.02-.02.01-.04.01-.07,0-3.29.09-5.48.53-6.57,1.31-.35.27-.55.51-.58.75l-.05-.17c-.2-.44-.75-.82-1.64-1.13-1.26-.44-3.08-.7-5.46-.76h-.07s-.03,0-.03-.02c-.29,0-.54.11-.75.32-.21.21-.31.45-.3.73v12.45h0ZM41.15,74.31v-10.34c2.38.18,4.11.54,5.19,1.08v10.24c-1.07-.53-2.8-.86-5.19-.98h0ZM42.2,72.17s.09,0,.17.02c.08.01.22.02.43.02s.42.02.63.05c.21.03.43.07.65.12.22.04.43.11.61.18.19.08.33.17.43.28.1.11.16.24.18.38v-2.07s0-.07-.02-.12c-.01-.04-.07-.13-.18-.25-.11-.12-.27-.23-.46-.32-.2-.09-.51-.17-.93-.25-.42-.08-.92-.12-1.51-.12v2.07h0ZM42.2,68.02s.09,0,.17.02c.08.01.22.02.43.02s.42.02.63.05c.21.03.43.07.65.12s.43.11.61.18c.19.08.33.17.43.28.1.11.16.24.18.38v-2.07s0-.07-.02-.12c-.01-.04-.07-.13-.18-.25-.11-.12-.27-.23-.46-.32-.2-.09-.51-.17-.93-.25-.42-.08-.92-.12-1.51-.12v2.07h0ZM48.42,75.29v-10.24c1.07-.54,2.8-.9,5.18-1.08v10.34c-2.39.12-4.12.45-5.18.98h0ZM49.45,73.22c0-.2.11-.37.32-.51.21-.14.47-.24.78-.3s.61-.11.91-.15.56-.07.78-.07l.33-.02v-2.07c-.59,0-1.1.04-1.53.12s-.74.16-.93.25-.34.19-.45.32c-.11.12-.18.21-.2.27l-.02.1v2.07h0ZM49.45,69.07c0-.2.11-.37.32-.51.21-.14.47-.24.78-.3s.61-.11.91-.15.56-.07.78-.07l.33-.02v-2.07c-.59,0-1.1.04-1.53.12-.43.08-.74.16-.93.25-.19.09-.34.19-.45.32-.11.12-.18.21-.2.27l-.02.1v2.07h0ZM13.73,97.56c0,.29.1.53.3.73.2.2.45.3.75.3.66.03,1.32.08,1.97.15.65.07,1.41.19,2.26.38s1.53.41,2.02.66c.03.25.14.46.33.63.19.17.41.25.66.25s.48-.08.66-.25c.19-.17.3-.38.35-.63.5-.25,1.17-.48,2.01-.66.84-.19,1.59-.32,2.26-.38.66-.07,1.33-.12,1.99-.15.28,0,.52-.1.73-.3.21-.2.31-.44.3-.73v-12.45c0-.29-.1-.53-.3-.73-.2-.2-.44-.3-.73-.32-.01,0-.03,0-.05.02-.02.01-.04.01-.07,0-3.29.09-5.48.53-6.57,1.31-.35.27-.55.51-.58.75l-.05-.17c-.2-.44-.75-.82-1.64-1.13-1.26-.44-3.08-.7-5.46-.76h-.07s-.03,0-.03-.02c-.29,0-.54.11-.75.32-.21.21-.31.45-.3.73v12.45h0ZM15.8,96.58v-10.34c2.38.18,4.11.54,5.19,1.08v10.24c-1.07-.53-2.8-.86-5.19-.98h0ZM16.85,94.44s.09,0,.17.02c.08.01.22.02.43.02s.42.02.63.05c.21.03.43.07.65.12.22.04.43.11.61.18.19.08.33.17.43.28.1.11.16.24.18.38v-2.07s0-.07-.02-.12c-.01-.04-.07-.13-.18-.25-.11-.12-.27-.23-.46-.32-.2-.09-.51-.17-.93-.25-.42-.08-.92-.12-1.51-.12v2.07h0ZM16.85,90.29s.09,0,.17.02c.08.01.22.02.43.02s.42.02.63.05c.21.03.43.07.65.12s.43.11.61.18c.19.08.33.17.43.28.1.11.16.24.18.38v-2.07s0-.07-.02-.12c-.01-.04-.07-.13-.18-.25-.11-.12-.27-.23-.46-.32-.2-.09-.51-.17-.93-.25-.42-.08-.92-.12-1.51-.12v2.07h0ZM23.07,97.56v-10.24c1.07-.54,2.8-.9,5.18-1.08v10.34c-2.39.12-4.12.45-5.18.98h0ZM24.1,95.48c0-.2.11-.37.32-.51.21-.14.47-.24.78-.3s.61-.11.91-.15.56-.07.78-.07l.33-.02v-2.07c-.59,0-1.1.04-1.53.12s-.74.16-.93.25-.34.19-.45.32c-.11.12-.18.21-.2.27l-.02.1v2.07h0ZM24.1,91.33c0-.2.11-.37.32-.51.21-.14.47-.24.78-.3s.61-.11.91-.15.56-.07.78-.07l.33-.02v-2.07c-.59,0-1.1.04-1.53.12-.43.08-.74.16-.93.25-.19.09-.34.19-.45.32-.11.12-.18.21-.2.27l-.02.1v2.07h0ZM39.08,97.56c0,.29.1.53.3.73.2.2.45.3.75.3.66.03,1.32.08,1.97.15.65.07,1.41.19,2.26.38s1.53.41,2.02.66c.03.25.14.46.33.63.19.17.41.25.66.25s.48-.08.66-.25c.19-.17.3-.38.35-.63.5-.25,1.17-.48,2.01-.66.84-.19,1.59-.32,2.26-.38.66-.07,1.33-.12,1.99-.15.28,0,.52-.1.73-.3.21-.2.31-.44.3-.73v-12.45c0-.29-.1-.53-.3-.73-.2-.2-.44-.3-.73-.32-.01,0-.03,0-.05.02-.02.01-.04.01-.07,0-3.29.09-5.48.53-6.57,1.31-.35.27-.55.51-.58.75l-.05-.17c-.2-.44-.75-.82-1.64-1.13-1.26-.44-3.08-.7-5.46-.76h-.07s-.03,0-.03-.02c-.29,0-.54.11-.75.32-.21.21-.31.45-.3.73v12.45h0ZM41.15,96.58v-10.34c2.38.18,4.11.54,5.19,1.08v10.24c-1.07-.53-2.8-.86-5.19-.98h0ZM42.2,94.44s.09,0,.17.02c.08.01.22.02.43.02s.42.02.63.05c.21.03.43.07.65.12.22.04.43.11.61.18.19.08.33.17.43.28.1.11.16.24.18.38v-2.07s0-.07-.02-.12c-.01-.04-.07-.13-.18-.25-.11-.12-.27-.23-.46-.32-.2-.09-.51-.17-.93-.25-.42-.08-.92-.12-1.51-.12v2.07h0ZM42.2,90.29s.09,0,.17.02c.08.01.22.02.43.02s.42.02.63.05c.21.03.43.07.65.12s.43.11.61.18c.19.08.33.17.43.28.1.11.16.24.18.38v-2.07s0-.07-.02-.12c-.01-.04-.07-.13-.18-.25-.11-.12-.27-.23-.46-.32-.2-.09-.51-.17-.93-.25-.42-.08-.92-.12-1.51-.12v2.07h0ZM48.42,97.56v-10.24c1.07-.54,2.8-.9,5.18-1.08v10.34c-2.39.12-4.12.45-5.18.98h0ZM49.45,95.48c0-.2.11-.37.32-.51.21-.14.47-.24.78-.3s.61-.11.91-.15.56-.07.78-.07l.33-.02v-2.07c-.59,0-1.1.04-1.53.12s-.74.16-.93.25-.34.19-.45.32c-.11.12-.18.21-.2.27l-.02.1v2.07h0ZM49.45,91.33c0-.2.11-.37.32-.51.21-.14.47-.24.78-.3s.61-.11.91-.15.56-.07.78-.07l.33-.02v-2.07c-.59,0-1.1.04-1.53.12-.43.08-.74.16-.93.25-.19.09-.34.19-.45.32-.11.12-.18.21-.2.27l-.02.1v2.07h0Z"/></g></svg>